<svg id="Layer_1" data-name="Layer 1" xmlns="http://www.w3.org/2000/svg" viewBox="0 0 36.67 36.67"><defs><style>.cls-1{fill:#fff;}</style></defs><title>holdingwebpage</title><path class="cls-1" d="M30.53,2.33H6.14a3.8,3.8,0,0,0-3.8,3.8V30.54a3.8,3.8,0,0,0,3.8,3.8H30.53a3.8,3.8,0,0,0,3.8-3.8V6.13A3.8,3.8,0,0,0,30.53,2.33Zm-4.2,4h3a1,1,0,0,1,1,1v3a1,1,0,0,1-1,1h-3a1,1,0,0,1-1-1v-3A1,1,0,0,1,26.33,6.33Zm-8,5.9a6.14,6.14,0,1,1-6.15,6.14A6.15,6.15,0,0,1,18.37,12.23Zm12,19.1h-24a1,1,0,0,1-1-1v-15h4a6.11,6.11,0,0,0-.7,3,9.73,9.73,0,0,0,19.47,0,5.12,5.12,0,0,0-.77-3h4v15A1,1,0,0,1,30.33,31.33Z"/></svg>